# xmcd
#
# Track frame offsets:
#	150
#	25300
#	44773
#	67970
#	85023
#	108083
#	133233
#	152706
#	175856
#	192909
#
# Disc length: 2877 seconds
#
# Revision: 1765946981
# Processed by: cddbd v1.5.2PL0 Copyright (c) Steve Scherf et al.
# Submitted via: EZCDAudioConverter 8.0.2.1
#
DISCID=810b3b0a
DTITLE=群星 - 三生三世十里桃花[CD1 演唱歌曲&伴唱带]
DYEAR=2017
DGENRE=Contemporary Pop
TTITLE0=杨宗纬&张碧晨 - 凉凉
TTITLE1=张杰 - 三生三世
TTITLE2=郁可唯 - 思慕
TTITLE3=董贞 - 繁花
TTITLE4=香香 - 就算没有如果
TTITLE5=杨宗纬&张碧晨 - 凉凉(伴唱带)
TTITLE6=张杰 - 三生三世(伴唱带)
TTITLE7=郁可唯 - 思慕(伴唱带)
TTITLE8=董贞 - 繁花(伴唱带)
TTITLE9=香香 - 就算没有如果(伴唱带)
EXTD=
EXTT0=
EXTT1=
EXTT2=
EXTT3=
EXTT4=
EXTT5=
EXTT6=
EXTT7=
EXTT8=
EXTT9=
PLAYORDER=
